<svg id="visual" viewBox="0 0 900 600" width="900" height="600" xmlns="http://www.w3.org/2000/svg" xmlns:xlink="http://www.w3.org/1999/xlink" version="1.1"><rect x="0" y="0" width="900" height="600" fill="#002233"></rect><path d="M0 285L21.5 279.3C43 273.7 86 262.3 128.8 284.8C171.7 307.3 214.3 363.7 257.2 396.3C300 429 343 438 385.8 428.7C428.7 419.3 471.3 391.7 514.2 394.2C557 396.7 600 429.3 642.8 419.7C685.7 410 728.3 358 771.2 333.7C814 309.3 857 312.7 878.5 314.3L900 316L900 601L878.5 601C857 601 814 601 771.2 601C728.3 601 685.7 601 642.8 601C600 601 557 601 514.2 601C471.3 601 428.7 601 385.8 601C343 601 300 601 257.2 601C214.3 601 171.7 601 128.8 601C86 601 43 601 21.5 601L0 601Z" fill="#0066FF" stroke-linecap="round" stroke-linejoin="miter"></path></svg>